<?xml version="1.0" encoding="utf-8" ?><svg xmlns="http://www.w3.org/2000/svg" xmlns:xlink="http://www.w3.org/1999/xlink" width="32" height="32" viewBox="0 0 32 32"><path fill="#2A7158" transform="scale(0.0625 0.0625)" d="M255.941 157.347C286.951 157.266 297.639 199.807 266.899 214.388C268.977 218.979 270.3 224.766 271.794 229.589L317.528 382.437C318.912 387.154 320.316 392.456 321.931 397.055C324.692 397.184 326.443 397.197 329.22 397.055L329.214 288.607C329.166 268.441 329.617 267.508 348.001 267.657L375.525 267.668L375.52 226.691C375.52 223.249 374.966 206.892 376.454 203.418C377.049 202.03 388.039 202.517 390.759 202.536C390.766 197.078 390.731 191.633 390.708 186.16C390.361 179.767 397.252 175.413 397.057 191.213L397.002 202.536L412.038 202.536L412.015 180.736C412.012 177.789 411.515 170.466 412.811 167.822C414.444 165.471 418.456 167.014 418.265 169.471C417.426 180.289 418.631 191.82 418.024 202.536C428.948 202.878 432.566 198.977 432.52 209.147L432.49 363.242C432.491 374.371 432.685 385.984 432.493 397.055C437.524 397.36 443.038 396.713 447.431 397.055C450.731 400.441 449.514 406.226 449.507 410.625L449.488 432.614C450.546 432.673 453.152 432.827 454.528 432.639C461.555 431.675 462.345 439.187 456.14 439.101C451.801 439.041 447.438 438.995 443.081 438.994L315.409 438.992L62.5747 438.992C46.6574 438.996 48.0853 432.124 63.4683 432.614L63.4594 411.192C63.4023 392.264 62.0313 398.231 79.7414 397.055L79.7288 311.292C79.6858 300.885 78.7294 291.893 91.7797 290.52C91.947 284.639 90.8891 232.616 92.3758 229.837C92.9064 228.846 100.376 229.152 102.554 229.065C102.431 217.268 105.029 219.47 115.501 219.998C115.552 216.042 115.431 211.708 115.295 207.767C115.069 201.208 121.926 201.124 121.974 207.666C122.005 211.744 121.974 215.908 121.942 219.998C136.32 220.804 139.336 215.297 138.995 229.065C156.323 228.94 151.749 230.412 151.751 249.393L151.739 290.52C173.464 291.673 183.203 284.114 183.167 311.748L183.154 397.055C185.543 397.183 187.192 397.159 189.589 397.055L205.73 345.749C209.699 332.865 213.279 320.302 217.055 307.395L226.532 275.092L240.533 223.691C241.285 220.794 242.361 215.715 243.558 213.174C216.854 198.02 224.571 159.541 255.941 157.347ZM218.529 326.285C217.294 328.658 216.503 331.082 215.829 333.663C210.264 354.989 201.952 375.832 196.283 397.055L208.487 397.055C208.38 393.906 208.193 390.364 208.487 387.25C210.902 385.307 214.043 383.559 216.671 381.739L241.628 364.747C244.867 362.539 249.769 359.453 252.749 357.099C252.744 352.523 252.587 346.943 252.749 342.449C246.627 340.476 234.77 338.131 229.752 335.875C227.239 334.745 227.509 331.06 229.893 329.974C231.811 329.1 249.453 334.763 252.749 335.69L252.749 327.117C252.669 322.76 254.498 317.109 258.87 322.82L258.87 335.69C265.802 334.418 274.884 331.269 281.302 330.597C283.92 330.322 286.043 333.248 284.13 335.443C282.096 337.778 262.799 341.549 258.87 342.449L258.87 357.099C262.705 359.004 263.623 360.078 266.899 362.247C266.973 359.086 266.22 350.87 267.761 349.091C270.422 348.087 293.674 347.678 295.493 348.981C296.886 353.924 295.93 374.931 296.009 380.946C306.296 387.008 304.028 385.591 304.135 397.055L315.409 397.055L287.928 306.091C286.919 302.714 280.966 283.227 279.591 281.507C276.136 284.355 271.525 287.119 267.813 289.856L233.563 314.879C230.554 317.079 220.806 323.931 218.529 326.285ZM273.202 365.956C275.78 367.79 278.324 369.502 280.956 371.257C281.131 365.82 280.679 360.184 280.956 354.713L273.202 354.713C273.197 358.34 273.102 362.362 273.202 365.956ZM251.541 233.196C255.718 229.963 260.111 226.02 264.195 223.024C262.555 219.703 262.388 219.151 261.687 215.556C256.504 217.204 254.585 216.709 249.292 215.556C247.418 222.541 244.702 234.095 242.059 240.344C245.902 238.203 248.196 236.021 251.541 233.196ZM242.059 301.049C253.06 293.424 264.765 284.979 275.479 277.038C269.504 273.739 244.202 256.947 239.779 252.629C236.919 259.037 235.474 266.637 233.444 273.456C229.192 287.741 225.328 302.073 220.919 316.322C227.886 311.407 235.076 306.056 242.059 301.049ZM245.778 369.65C247.145 372.075 254.79 362.032 257.483 367.272C257.354 365.593 257.398 364.682 257.483 363.01C255.246 361.635 247.896 367.945 245.778 369.65ZM264.195 262.175C266.904 263.924 274.834 269.595 277.111 270.689C276.438 268.025 266.036 230.9 265.25 230.217C258.64 235.856 249.713 241.976 243.558 247.746C250.239 252.901 257.222 257.43 264.195 262.175ZM289.749 376.126C289.224 373.024 288.964 369.565 286.684 374.385C287.091 374.738 289.754 377.496 289.749 376.126Z"/><defs><linearGradient id="gradient_0" gradientUnits="userSpaceOnUse" x1="330.74747" y1="337.97766" x2="397.50528" y2="332.55634"><stop offset="0" stop-color="#97E17E"/><stop offset="1" stop-color="#CAFFB7"/></linearGradient></defs><path fill="url(#gradient_0)" transform="scale(0.0625 0.0625)" d="M384.963 273.432C389.816 273.132 395.286 273.393 400.168 273.421L426.213 273.432L426.213 397.055L393.234 397.055L335.204 397.055C335.202 396.966 335.2 396.877 335.198 396.788L335.188 290.834C335.179 269.522 334.686 273.423 356.129 273.421L384.963 273.432Z"/><path fill="#A0D985" transform="scale(0.0625 0.0625)" d="M384.963 273.432C389.816 273.132 395.286 273.393 400.168 273.421L426.213 273.432L426.213 397.055L393.234 397.055C393.526 383.657 393.234 369.083 393.232 355.612L393.234 273.432C390.466 273.581 387.728 273.651 384.963 273.432Z"/><path fill="#2C6659" transform="scale(0.0625 0.0625)" d="M417.28 374.043L417.75 374.053C418.266 375 418.028 388.68 418.024 390.745C413.661 391.29 405.411 390.878 400.887 390.745L400.291 390.547C399.625 389.122 399.901 376.421 399.909 374.043L417.28 374.043Z"/><path fill="#52BF54" transform="scale(0.0625 0.0625)" d="M405.007 378.993L412.648 378.993L412.648 386.076C409.515 385.852 408.159 385.815 405.007 386.076L405.007 378.993Z"/><path fill="#2C6659" transform="scale(0.0625 0.0625)" d="M399.909 281.507C404.566 281.074 413.356 281.247 418.024 281.507C418.023 283.272 418.21 297.575 418.024 297.956C412.041 297.881 405.903 297.952 399.909 297.956C399.752 294.147 399.673 285.046 399.909 281.507Z"/><path fill="#52BF54" transform="scale(0.0625 0.0625)" d="M405.007 286.77C407.912 286.557 409.751 286.544 412.648 286.77C412.709 288.969 412.723 290.824 412.648 293.019C410.477 293.117 407.247 293.022 405.007 293.019C405.167 290.643 405.15 289.136 405.007 286.77Z"/><path fill="#2C6659" transform="scale(0.0625 0.0625)" d="M401.764 304.457C407.08 304.333 412.687 304.439 418.024 304.457C418.03 306.821 418.145 319.346 417.823 320.856L417.28 321.051L399.909 321.051C399.822 317.108 398.126 304.909 401.764 304.457Z"/><path fill="#52BF54" transform="scale(0.0625 0.0625)" d="M406.067 309.859L412.648 309.859C412.526 311.538 412.732 315.242 412.541 316.191L412.038 316.322L405.007 316.322C405 314.827 404.669 311.282 405.295 310.029L406.067 309.859Z"/><path fill="#2C6659" transform="scale(0.0625 0.0625)" d="M413.696 350.735L418.024 350.735L418.024 367.272L403.972 367.272C396.937 367.296 399.813 358.012 399.909 350.735C403.683 350.506 409.765 350.718 413.696 350.735Z"/><path fill="#52BF54" transform="scale(0.0625 0.0625)" d="M405.007 355.268C408.409 355.65 409.248 355.75 412.648 355.268L412.648 362.247C409.691 362.478 407.976 362.445 405.007 362.247L405.007 355.268Z"/><path fill="#2C6659" transform="scale(0.0625 0.0625)" d="M418.024 327.823C418.159 328.07 418.025 342.42 418.024 344.007L399.909 344.007C399.556 342.564 399.903 330.272 399.909 327.823C401.711 327.642 404.674 327.776 406.564 327.792L418.024 327.823Z"/><path fill="#52BF54" transform="scale(0.0625 0.0625)" d="M407.734 332.874C409.313 332.833 411.054 332.872 412.648 332.874C412.73 335.145 412.698 337.165 412.648 339.426L409.688 339.426C408.568 339.323 406.22 339.412 405.007 339.426L405.007 332.874L407.734 332.874Z"/><path fill="#2C6659" transform="scale(0.0625 0.0625)" d="M343.911 350.735L361.96 350.735C361.938 355.858 362.232 362.306 361.96 367.272C356.794 367.756 349.163 367.53 343.911 367.272C343.658 362.824 343.903 355.4 343.911 350.735Z"/><path fill="#52BF54" transform="scale(0.0625 0.0625)" d="M349.259 355.268C352.278 355.516 353.467 355.465 356.519 355.268C356.434 357.72 356.457 359.808 356.519 362.247L349.259 362.247C349.129 359.73 349.179 357.768 349.259 355.268Z"/><path fill="#2C6659" transform="scale(0.0625 0.0625)" d="M352.938 374.043L361.96 374.043C361.951 379.587 362.068 385.211 361.96 390.745C359.022 391.372 355.942 390.964 352.938 390.745L343.911 390.745L343.911 374.043C346.927 374.061 349.922 374.081 352.938 374.043Z"/><path fill="#52BF54" transform="scale(0.0625 0.0625)" d="M349.259 378.993C352.219 379.216 353.547 379.239 356.519 378.993C356.486 380.358 356.903 385.644 356.519 386.076C354.1 386.141 351.679 386.099 349.259 386.076C349.175 384.535 348.251 380.066 349.259 378.993Z"/><path fill="#2C6659" transform="scale(0.0625 0.0625)" d="M372.897 304.457C378.623 304.452 384.345 304.521 390.073 304.457C390.084 306.754 390.347 319.642 389.684 320.885L389.048 321.051C385.315 321.273 375.91 321.166 372.055 321.051C372.046 318.877 371.79 305.853 372.305 304.648L372.897 304.457Z"/><path fill="#52BF54" transform="scale(0.0625 0.0625)" d="M380.165 309.859C381.607 309.577 383.509 309.71 384.963 309.859C385.035 311.965 385.938 315.819 383.313 316.322C381.168 316.24 379.607 316.218 377.471 316.322C377.54 312.966 375.865 309.853 380.165 309.859Z"/><path fill="#2C6659" transform="scale(0.0625 0.0625)" d="M372.055 350.735C378.003 350.644 384.111 350.72 390.073 350.735C390.07 353.017 390.518 366.487 390.073 367.272L372.055 367.272C372.058 364.792 371.714 352.026 372.055 350.735Z"/><path fill="#52BF54" transform="scale(0.0625 0.0625)" d="M377.471 355.268C380.367 355.496 382.04 355.437 384.963 355.268C385.006 357.565 384.968 359.942 384.963 362.247L377.471 362.247C377.395 359.841 377.424 357.664 377.471 355.268Z"/><path fill="#2C6659" transform="scale(0.0625 0.0625)" d="M348.069 304.457C352.726 304.424 357.302 304.69 361.96 304.457L361.96 321.051L358.312 321.051C353.588 321.008 348.564 321.379 343.911 321.051L343.911 304.457L348.069 304.457Z"/><path fill="#52BF54" transform="scale(0.0625 0.0625)" d="M350.51 309.859C352.761 309.586 354.29 309.668 356.519 309.859C356.597 311.844 357.704 316.052 355.062 316.322C353.164 316.364 351.166 316.327 349.259 316.322C349.247 314.815 348.815 310.959 349.638 309.948L350.51 309.859Z"/><path fill="#2C6659" transform="scale(0.0625 0.0625)" d="M372.055 281.507C377.391 281.515 384.942 281.215 390.073 281.507C390.147 286.903 390.117 292.557 390.073 297.956C384.134 298.046 378.007 297.968 372.055 297.956C371.884 292.74 372.039 286.771 372.055 281.507Z"/><path fill="#52BF54" transform="scale(0.0625 0.0625)" d="M377.471 286.77C379.82 286.687 382.583 286.764 384.963 286.77L384.963 293.019C382.096 293.12 380.35 293.246 377.471 293.019C377.262 290.697 377.335 289.09 377.471 286.77Z"/><path fill="#2C6659" transform="scale(0.0625 0.0625)" d="M351.391 281.507L361.96 281.507L361.96 297.956C359.813 298.047 357.241 297.967 355.062 297.956L343.911 297.956L343.911 281.507C346.688 281.615 348.595 281.632 351.391 281.507Z"/><path fill="#52BF54" transform="scale(0.0625 0.0625)" d="M349.259 286.77C351.782 286.938 354.003 286.845 356.519 286.77L356.519 293.019C354.104 293.087 351.676 293.042 349.259 293.019L349.259 286.77Z"/><path fill="#2C6659" transform="scale(0.0625 0.0625)" d="M343.911 327.823L361.96 327.823C361.952 333.195 362.071 338.645 361.96 344.007C359.535 344.211 345.812 344.312 343.911 344.007L343.911 327.823Z"/><path fill="#52BF54" transform="scale(0.0625 0.0625)" d="M349.259 332.874C351.837 332.947 353.946 332.943 356.519 332.874C356.614 335.282 356.645 337.027 356.519 339.426L349.259 339.426C349.343 337.152 349.311 335.138 349.259 332.874Z"/><path fill="#2C6659" transform="scale(0.0625 0.0625)" d="M372.055 327.823C377.858 327.848 384.372 327.6 390.073 327.823C390.462 332.99 390.371 338.846 390.073 344.007C384.574 344.23 377.67 344.022 372.055 344.007L372.055 327.823Z"/><path fill="#6CD667" transform="scale(0.0625 0.0625)" d="M377.471 332.874C380.575 332.533 381.822 332.584 384.963 332.874L384.963 339.426C382.287 339.231 380.137 339.331 377.471 339.426C377.658 336.968 377.655 335.314 377.471 332.874Z"/><path fill="#2C6659" transform="scale(0.0625 0.0625)" d="M380.686 374.385L390.073 374.385C390.062 379.816 389.967 385.324 390.073 390.745C387.477 390.86 384.367 390.765 381.734 390.745L372.055 390.745L372.055 374.385L380.686 374.385Z"/><path fill="#52BF54" transform="scale(0.0625 0.0625)" d="M377.471 378.993C380.278 379.146 382.181 379.103 384.963 378.993C384.559 382.049 384.634 382.989 384.963 386.076L377.471 386.076C377.344 384.038 377.455 381.096 377.471 378.993Z"/><path fill="#B6F88F" transform="scale(0.0625 0.0625)" d="M165.665 296.793C174.37 296.571 176.84 296.269 176.897 306.029L176.888 397.055L165.665 397.055L86.1628 397.055L86.1495 312.84C86.1327 295.065 85.3117 296.766 104.388 296.775L129.316 296.793L165.665 296.793Z"/><path fill="#6CD667" transform="scale(0.0625 0.0625)" d="M165.665 296.793C174.37 296.571 176.84 296.269 176.897 306.029L176.888 397.055L165.665 397.055C165.597 394.924 165.633 392.873 165.665 390.745C166.332 390.724 168.836 390.585 168.893 389.858C169.361 383.929 172.071 374.267 165.665 373.492L165.665 367.272C163.758 367.381 155.719 367.515 154.304 367.272C149.147 366.106 150.584 354.794 151.634 351.964C151.876 351.308 153.618 350.917 154.304 350.735C154.017 348.074 154.795 345.646 151.739 344.962C150.198 343.781 150.954 331.135 151.493 329.018C151.656 328.38 153.593 327.978 154.304 327.823C153.775 325.887 154.114 323.739 154.304 321.742L165.665 321.742C171.835 321.605 169.909 309.545 168.952 305.197C167.934 304.294 166.989 304.424 165.665 304.457L165.665 296.793Z"/><path fill="#2C6659" transform="scale(0.0625 0.0625)" d="M154.304 321.742L165.665 321.742C165.53 323.585 165.421 325.988 165.665 327.823C171.696 328.355 169.315 339.455 169.222 344.962C168.067 344.972 166.81 345.01 165.665 344.962C165.472 347.287 165.417 348.408 165.665 350.735C162.363 350.9 157.711 350.743 154.304 350.735C154.017 348.074 154.795 345.646 151.739 344.962C150.198 343.781 150.954 331.135 151.493 329.018C151.656 328.38 153.593 327.978 154.304 327.823C153.775 325.887 154.114 323.739 154.304 321.742Z"/><path fill="#A0D985" transform="scale(0.0625 0.0625)" d="M154.304 321.742L165.665 321.742C165.53 323.585 165.421 325.988 165.665 327.823C162.265 327.848 157.606 328.016 154.304 327.823C153.775 325.887 154.114 323.739 154.304 321.742Z"/><path fill="#A0D985" transform="scale(0.0625 0.0625)" d="M151.739 344.962L165.665 344.962C165.472 347.287 165.417 348.408 165.665 350.735C162.363 350.9 157.711 350.743 154.304 350.735C154.017 348.074 154.795 345.646 151.739 344.962Z"/><path fill="#52BF54" transform="scale(0.0625 0.0625)" d="M161.399 332.874L164.487 332.874L164.487 340.952C162.657 341.086 161.123 341.014 159.286 340.952C158.351 341.004 156.974 340.955 156.003 340.952C155.596 337.339 155.529 336.489 156.003 332.874L161.399 332.874Z"/><path fill="#2C6659" transform="scale(0.0625 0.0625)" d="M165.665 350.735C171.555 352.203 169.935 362.854 168.577 366.799C166.786 367.664 157.167 367.261 154.304 367.272C149.147 366.106 150.584 354.794 151.634 351.964C151.876 351.308 153.618 350.917 154.304 350.735C157.711 350.743 162.363 350.9 165.665 350.735Z"/><path fill="#52BF54" transform="scale(0.0625 0.0625)" d="M156.003 355.268L164.487 355.268C164.048 358.796 164.059 359.418 164.487 363.01L156.003 363.01L156.003 355.268Z"/><path fill="#2C6659" transform="scale(0.0625 0.0625)" d="M165.665 304.457C166.989 304.424 167.934 304.294 168.952 305.197C169.909 309.545 171.835 321.605 165.665 321.742L154.304 321.742C153.182 321.611 152.182 321.58 151.326 320.85C150.627 318.601 149.224 305.511 153.484 304.457L165.665 304.457Z"/><path fill="#52BF54" transform="scale(0.0625 0.0625)" d="M156.003 309.233L164.487 309.233L164.487 317.25C161.669 317.143 158.825 317.214 156.003 317.25L156.003 309.233Z"/><path fill="#2C6659" transform="scale(0.0625 0.0625)" d="M165.665 390.745C162.672 390.757 154.424 391.155 152.054 390.17C150.548 388.427 150.742 376.272 151.769 374.239C153.803 373.146 162.854 373.485 165.665 373.492C172.071 374.267 169.361 383.929 168.893 389.858C168.836 390.585 166.332 390.724 165.665 390.745Z"/><path fill="#52BF54" transform="scale(0.0625 0.0625)" d="M156.003 378.315L164.487 378.315C164.415 380.954 164.446 383.441 164.487 386.076C162.358 386.22 158.273 386.083 156.003 386.076C155.927 383.463 155.968 380.926 156.003 378.315Z"/><path fill="#A0D985" transform="scale(0.0625 0.0625)" d="M129.316 296.793L165.665 296.793L165.665 304.457L153.484 304.457C153.603 302.193 153.496 299.116 153.484 296.793C150.828 296.791 129.846 297.07 129.316 296.793Z"/><path fill="#2C6659" transform="scale(0.0625 0.0625)" d="M124.291 304.457C129.914 304.166 142.214 302.063 140.965 309.57C140.404 312.947 141.923 319.125 140.158 321.742C137.332 321.822 125.14 322.244 123.492 320.89C122.581 318.719 122.226 306.542 124.291 304.457Z"/><path fill="#52BF54" transform="scale(0.0625 0.0625)" d="M127.795 309.233C130.76 309.019 132.975 309.05 135.933 309.233C135.963 311.899 135.94 314.582 135.933 317.25L127.795 317.25C127.769 314.56 127.743 311.924 127.795 309.233Z"/><path fill="#2C6659" transform="scale(0.0625 0.0625)" d="M124.291 373.492C126.671 373.449 141.305 372.092 140.927 375.616C140.592 378.73 141.603 388.887 140.158 390.745C137.708 390.95 124.809 391.186 123.487 389.846C122.566 387.467 121.855 375.265 124.291 373.492Z"/><path fill="#52BF54" transform="scale(0.0625 0.0625)" d="M127.795 378.315C130.528 378.247 133.201 378.284 135.933 378.315C135.724 381.302 135.747 383.085 135.933 386.076C132.53 386.402 131.219 386.411 127.795 386.076L127.795 378.315Z"/><path fill="#2C6659" transform="scale(0.0625 0.0625)" d="M126.272 327.823C129.65 328.142 137.03 327.275 140.145 328.603C141.962 330.324 142.522 344.359 138.312 344.962C134.92 344.972 126.759 345.342 123.964 344.408C122.42 343.187 122.62 329.984 123.543 328.617C124.446 327.963 125.161 327.977 126.272 327.823Z"/><path fill="#52BF54" transform="scale(0.0625 0.0625)" d="M131.938 332.874C133.3 332.752 134.568 332.83 135.933 332.874C136.025 335.607 135.975 338.221 135.933 340.952L131.938 340.952C130.995 340.84 128.83 340.935 127.795 340.952L127.795 332.874L131.938 332.874Z"/><path fill="#2C6659" transform="scale(0.0625 0.0625)" d="M101.096 373.492C103.833 373.399 109.401 372.992 111.731 373.787C113.423 374.364 113.061 388.706 112.198 390.038C110.744 391.097 109.007 390.785 107.152 390.745C104.461 390.741 98.9223 391.093 96.5793 390.375C95.0852 388.983 95.1238 375.626 96.0375 374.207C97.53 373.122 99.1966 373.443 101.096 373.492Z"/><path fill="#52BF54" transform="scale(0.0625 0.0625)" d="M100.413 378.315C103.51 378.087 105.036 378.027 108.137 378.315C108.289 380.944 108.354 383.45 108.137 386.076C104.694 386.514 103.939 386.462 100.413 386.076C100.373 383.464 100.386 380.924 100.413 378.315Z"/><path fill="#2C6659" transform="scale(0.0625 0.0625)" d="M98.2717 304.457C99.9444 304.449 112.525 303.858 112.561 305.462C112.653 309.52 114.693 320.747 110.564 321.742C108.453 321.741 97.5623 322.143 96.336 321.177C94.6585 319.857 93.7677 305.368 98.2717 304.457Z"/><path fill="#52BF54" transform="scale(0.0625 0.0625)" d="M104.437 309.233L108.137 309.233L108.137 317.25L104.437 317.25L100.413 317.25C100.547 314.419 100.49 312.054 100.413 309.233L104.437 309.233Z"/><path fill="#2C6659" transform="scale(0.0625 0.0625)" d="M129.316 350.735C142.346 352.259 140.588 347.974 140.917 361.693C141.056 367.501 140.081 367.382 135.006 367.272C131.988 367.284 126.981 367.581 124.197 367.197C122.135 366.913 122.697 353.726 123.338 352.125C124.706 350.939 127.404 350.934 129.316 350.735Z"/><path fill="#52BF54" transform="scale(0.0625 0.0625)" d="M127.795 355.268C130.496 355.172 133.227 355.235 135.933 355.268L135.933 363.01C133.237 363.037 130.494 363.012 127.795 363.01C127.867 360.448 127.815 357.834 127.795 355.268Z"/><path fill="#2C6659" transform="scale(0.0625 0.0625)" d="M95.5368 327.823C98.7684 327.811 109.328 327.498 111.895 328.44C113.31 329.863 113.227 343.629 111.9 344.962C109.677 345.131 97.2761 345.273 96.1338 344.152C95.5353 342.68 95.2503 329.225 95.5368 327.823Z"/><path fill="#52BF54" transform="scale(0.0625 0.0625)" d="M100.413 332.874C103.952 332.296 104.519 332.361 108.137 332.874L108.137 340.952L100.413 340.952C100.268 338.14 100.16 335.684 100.413 332.874Z"/><path fill="#2C6659" transform="scale(0.0625 0.0625)" d="M106.021 350.735C107.443 350.717 112.565 350.222 112.616 351.977C113.045 366.797 115.991 367.32 102.554 367.272C97.4194 367.389 95.2513 368.174 95.5334 361.9C96.0907 349.507 93.6376 351.454 106.021 350.735Z"/><path fill="#52BF54" transform="scale(0.0625 0.0625)" d="M100.413 355.268L108.137 355.268C108.005 357.822 108.06 360.452 108.137 363.01L100.413 363.01C100.745 360.013 100.628 358.304 100.413 355.268Z"/><path fill="#52BF54" transform="scale(0.0625 0.0625)" d="M304.135 403.362L443.007 403.362L443.007 413.245L443.007 432.614L304.135 432.614L304.135 413.245L304.135 403.362Z"/><path fill="#A0D985" transform="scale(0.0625 0.0625)" d="M304.135 403.362L443.007 403.362L443.007 413.245C438.667 413.556 429.191 413.254 424.517 413.252L331.342 413.245C322.822 413.246 312.463 413.549 304.135 413.245L304.135 403.362Z"/><path fill="#52BF54" transform="scale(0.0625 0.0625)" d="M69.9185 403.362L162.246 403.358C177.454 403.357 193.378 403.09 208.487 403.362L208.487 413.245L208.487 432.614L69.9185 432.614L69.9185 413.245C69.843 409.959 69.8947 406.65 69.9185 403.362Z"/><path fill="#A0D985" transform="scale(0.0625 0.0625)" d="M69.9185 403.362L162.246 403.358C177.454 403.357 193.378 403.09 208.487 403.362L208.487 413.245L69.9185 413.245C69.843 409.959 69.8947 406.65 69.9185 403.362Z"/><path fill="#A0D985" transform="scale(0.0625 0.0625)" d="M257.483 363.01C268.908 372.195 285.255 381.366 297.784 389.255L297.784 432.614L278.438 432.614C278.241 422.933 278.683 413.188 278.38 403.514C278.276 400.209 270.66 401.002 268.274 401.001L256.062 401.009C252.68 401.013 236.01 399.595 234.33 402.333C233.097 404.342 233.753 428.391 233.749 432.614L223.754 432.614L214.699 432.614L214.699 390.745C218.959 387.025 240.107 372.652 245.778 369.65C247.145 372.075 254.79 362.032 257.483 367.272C257.354 365.593 257.398 364.682 257.483 363.01Z"/><path fill="#B6F88F" transform="scale(0.0625 0.0625)" d="M245.778 369.65C247.145 372.075 254.79 362.032 257.483 367.272C257.488 370.104 257.566 373.324 257.483 376.126C253.174 382.462 225.125 396.122 224.092 399.842C222.596 405.232 224.162 425.498 223.754 432.614L214.699 432.614L214.699 390.745C218.959 387.025 240.107 372.652 245.778 369.65Z"/><path fill="#52BF54" transform="scale(0.0625 0.0625)" d="M381.734 208.248L392.507 208.248L426.213 208.248C426.498 213.442 426.212 221.032 426.209 226.446L426.213 267.668L392.507 267.668C388.905 267.655 385.34 267.805 381.734 267.668L381.734 208.248Z"/><path fill="#6CD667" transform="scale(0.0625 0.0625)" d="M381.734 208.248L392.507 208.248C392.289 213.028 392.505 218.488 392.509 223.37L392.518 253.601C392.52 257.69 392.767 263.82 392.507 267.668C388.905 267.655 385.34 267.805 381.734 267.668L381.734 208.248Z"/><path fill="#52BF54" transform="scale(0.0625 0.0625)" d="M108.137 235.358L145.489 235.358L145.489 290.52C133.125 290.656 120.526 290.517 108.137 290.52L98.2717 290.52L98.2717 235.358L108.137 235.358Z"/><path fill="#B6F88F" transform="scale(0.0625 0.0625)" d="M98.2717 235.358L108.137 235.358L108.148 271.652C108.148 277.593 108.333 284.664 108.137 290.52L98.2717 290.52L98.2717 235.358Z"/><path fill="#B6F88F" transform="scale(0.0625 0.0625)" d="M241.99 204.706C232.814 197.294 230.744 184.136 237.202 174.264C243.659 164.393 256.544 161.017 267.012 166.455C274.783 170.491 279.583 178.595 279.388 187.35C279.193 196.105 274.037 203.987 266.093 207.674C258.15 211.36 248.802 210.209 241.99 204.706Z"/><path fill="#A0D985" transform="scale(0.0625 0.0625)" d="M267.012 166.455C274.783 170.491 279.583 178.595 279.388 187.35C279.193 196.105 274.037 203.987 266.093 207.674C258.15 211.36 248.802 210.209 241.99 204.706C253.57 198.424 271.314 188.534 268.567 172.75C268.191 170.593 267.247 168.65 267.012 166.455Z"/><path fill="#2A7158" transform="scale(0.0625 0.0625)" d="M254.821 168.889C259.046 168.486 262.803 171.571 263.228 175.794C263.654 180.017 260.588 183.79 256.367 184.238C252.115 184.689 248.308 181.595 247.879 177.34C247.45 173.086 250.564 169.295 254.821 168.889Z"/><path fill="#A0D985" transform="scale(0.0625 0.0625)" d="M254.934 175.103C257.448 175.224 256.99 176.992 255.941 178.719C253.735 178.054 253.954 176.742 254.934 175.103Z"/><path fill="#52BF54" transform="scale(0.0625 0.0625)" d="M239.779 407.258L272.008 407.258L272.008 432.614L239.779 432.614L239.779 407.258Z"/><path fill="#A0D985" transform="scale(0.0625 0.0625)" d="M280.956 354.713C283.888 354.687 286.816 354.643 289.749 354.713C289.762 361.782 289.865 369.075 289.749 376.126C289.224 373.024 288.964 369.565 286.684 374.385C284.488 373.645 282.881 372.515 280.956 371.257C281.131 365.82 280.679 360.184 280.956 354.713Z"/><path fill="#52BF54" transform="scale(0.0625 0.0625)" d="M109.279 225.793L132.608 225.793L132.608 229.065L109.279 229.065L109.279 225.793Z"/><path fill="#2A7158" transform="scale(0.0625 0.0625)" d="M250.067 73.4964C275.324 72.6232 299.862 79.1942 319.381 95.8286C323.376 99.2337 311.143 108.994 308.447 111.494C306.184 113.581 303.207 111.066 301.244 109.473C289.88 100.249 276.82 97.4089 262.812 94.9944C241.938 96.5502 232.46 95.072 213.245 108.038C201.859 115.722 203.994 108.542 193.414 99.4208C191.231 97.5384 194.075 95.0636 195.712 93.7931C212.099 81.0722 229.792 75.6176 250.067 73.4964Z"/><path fill="#B6F88F" transform="scale(0.0625 0.0625)" d="M254.934 79.9131C273.298 78.8408 298.527 86.7533 312.645 98.4433L306.23 105.163C291.062 94.2667 279.135 90.0642 260.076 88.5059L257.071 88.4566C241.659 88.2779 218.55 94.2649 207.403 105.163C205.858 102.999 203.175 99.9422 200.994 98.4433C214.822 85.816 236.448 80.4941 254.934 79.9131Z"/><path fill="#B6F88F" transform="scale(0.0625 0.0625)" d="M218.529 124.496C213.123 124.78 213.974 119.657 217.972 116.598C240.23 99.5672 270.255 99.4866 292.856 115.59C299.529 120.344 299.147 126.296 292.889 124.496C292.82 126.627 288.526 130.548 286.684 131.312C288.316 134.612 285.363 136.143 282.297 135.675C281.367 137.094 276.863 142.11 275.479 142.864C276.858 146.711 273.54 149.213 269.848 146.444C262.265 140.757 250.327 140.391 242.644 146.057C238.108 149.402 234.208 146.447 236.499 142.864C233.919 142.026 231.07 137.966 229.683 135.675C226.192 136.157 225.443 134.226 224.746 131.312C221.991 128.461 221.003 128.478 218.529 124.496Z"/><path fill="#B6F88F" transform="scale(0.0625 0.0625)" d="M229.683 135.675C247.508 120.872 264.545 122.729 282.297 135.675C281.367 137.094 276.863 142.11 275.479 142.864C276.858 146.711 273.54 149.213 269.848 146.444C262.265 140.757 250.327 140.391 242.644 146.057C238.108 149.402 234.208 146.447 236.499 142.864C233.919 142.026 231.07 137.966 229.683 135.675Z"/><path fill="#2A7158" transform="scale(0.0625 0.0625)" d="M236.499 142.864C247.346 133.953 265.3 132.473 275.479 142.864C276.858 146.711 273.54 149.213 269.848 146.444C262.265 140.757 250.327 140.391 242.644 146.057C238.108 149.402 234.208 146.447 236.499 142.864Z"/><path fill="#2A7158" transform="scale(0.0625 0.0625)" d="M218.529 124.496C213.123 124.78 213.974 119.657 217.972 116.598C240.23 99.5672 270.255 99.4866 292.856 115.59C299.529 120.344 299.147 126.296 292.889 124.496C287.401 116.928 272.57 112.028 263.649 110.665C247.905 108.26 230.12 113.321 218.529 124.496Z"/><path fill="#2A7158" transform="scale(0.0625 0.0625)" d="M224.746 131.312C227.148 129.785 229.437 127.423 231.887 125.889C248.048 115.768 273.188 116.937 286.684 131.312C288.316 134.612 285.363 136.143 282.297 135.675C264.545 122.729 247.508 120.872 229.683 135.675C226.192 136.157 225.443 134.226 224.746 131.312Z"/><path fill="#2A7158" transform="scale(0.0625 0.0625)" d="M180.601 127.48C184.075 127.415 193.627 138.071 194.939 140.643C195.75 142.232 190.695 148.523 189.611 150.466C179.184 169.395 178.197 193.483 187.704 212.997C189.521 216.726 194.228 223.396 195.79 226.302C197.247 229.012 189.05 234.757 186.899 237.818L186.668 238.151C185.372 238.94 182.34 241.308 181.005 241.01C177.27 238.598 170.738 226.615 168.567 222.107C158.68 201.577 157.102 175.754 164.737 154.213C166.922 148.047 175.361 129.992 180.601 127.48Z"/><path fill="#B6F88F" transform="scale(0.0625 0.0625)" d="M181.239 135.675C184.209 137.642 185.449 139.547 188.546 141.498C169.383 161.691 171.977 202.192 186.668 224.26L188.546 227.034C186.459 229.079 184.407 231.083 182.386 233.196L179.621 229.065C178.004 225.491 175.584 221.55 173.861 217.917C161.798 192.491 164.402 158.466 181.239 135.675Z"/><path fill="#B6F88F" transform="scale(0.0625 0.0625)" d="M186.668 224.26L188.546 227.034C186.459 229.079 184.407 231.083 182.386 233.196L179.621 229.065C181.029 229.704 181.996 230.245 183.154 231.268C188.009 227.322 184.214 227.403 186.668 224.26Z"/><path fill="#2A7158" transform="scale(0.0625 0.0625)" d="M329.22 127.48C333.454 127.744 335.024 132.028 337.145 135.198C355.175 162.141 356.279 200.813 340.279 228.959C336.96 234.797 334.506 242.934 327.653 237.203C321.955 231.559 314.574 229.598 319.372 222.68C333.804 201.87 333.887 170.864 321.379 149.195C317.16 141.886 313.447 141.135 321.986 134.569C324.08 132.959 326.478 128.47 329.22 127.48Z"/><path fill="#B6F88F" transform="scale(0.0625 0.0625)" d="M329.22 135.675C332.439 138.696 333.504 141.144 335.583 144.982C348.601 169.019 349.077 207.866 332.189 230.217C330.996 232.463 326.25 228.008 324.764 226.58L325.1 225.793C339.099 197.998 343.489 169.029 323.864 141.498C325.635 139.399 327.32 137.649 329.22 135.675Z"/><path fill="#B6F88F" transform="scale(0.0625 0.0625)" d="M304.811 153.861C304.06 137.402 325.669 165.414 320.132 195.122C319.359 199.104 310.363 227.932 304.135 215.556C302.007 213.422 297.968 210.001 297.784 207.024C295.819 207.454 293.081 206.443 292.283 204.568C290.896 201.307 303.821 189.345 295.268 171.333C293.91 167.673 287.692 161.353 296.009 161.227C296.44 159.898 302.568 154.033 304.135 153.861L304.811 153.861Z"/><path fill="#2A7158" transform="scale(0.0625 0.0625)" d="M304.811 153.861C304.06 137.402 325.669 165.414 320.132 195.122C319.359 199.104 310.363 227.932 304.135 215.556C315.952 198.325 319.62 175.395 307.033 157.347C306.308 156.101 305.705 155.005 304.811 153.861Z"/><path fill="#2A7158" transform="scale(0.0625 0.0625)" d="M297.784 207.024C295.819 207.454 293.081 206.443 292.283 204.568C290.896 201.307 303.821 189.345 295.268 171.333C293.91 167.673 287.692 161.353 296.009 161.227C304.868 167.941 305.41 187.866 301.926 197.403C301.197 199.398 297.76 205.532 297.784 207.024Z"/><path fill="#B6F88F" transform="scale(0.0625 0.0625)" d="M209.001 214.388C209.125 216.715 206.925 220.199 204.911 218.575C189.047 205.779 188.159 174.995 197.727 158.218C199.238 155.958 206.318 144.675 208.487 153.861C208.315 156.15 213.314 159.359 214.699 162.477C224.383 161.266 217.279 170.397 216.399 173.419C213.317 181.255 213.345 189.579 217.266 197.122C219.668 201.744 223.82 205.554 215.922 207.024C215.975 210.042 212.055 214.266 209.001 214.388Z"/><path fill="#2A7158" transform="scale(0.0625 0.0625)" d="M209.001 214.388C209.125 216.715 206.925 220.199 204.911 218.575C189.047 205.779 188.159 174.995 197.727 158.218C199.238 155.958 206.318 144.675 208.487 153.861L208.341 154.122C207.507 155.584 206.473 157.023 205.48 158.383C194.556 173.351 195.232 202.011 209.001 214.388Z"/><path fill="#2A7158" transform="scale(0.0625 0.0625)" d="M214.699 162.477C224.383 161.266 217.279 170.397 216.399 173.419C213.317 181.255 213.345 189.579 217.266 197.122C219.668 201.744 223.82 205.554 215.922 207.024C203.04 190.102 207.89 179.028 214.581 162.771L214.699 162.477Z"/><path fill="#2A7158" transform="scale(0.0625 0.0625)" d="M381.734 139.639C385.261 139.474 411.649 139.316 413.063 139.915C416.299 141.287 415.608 145.371 412.648 146.483C408.954 146.485 382.454 146.904 380.636 146.126C377.584 144.818 378.661 140.208 381.734 139.639Z"/><path fill="#2A7158" transform="scale(0.0625 0.0625)" d="M103.366 139.639C108.066 139.633 130.547 139.032 133.38 140.196C136.587 141.513 134.587 145.583 131.938 146.483C128.578 146.632 104.401 146.851 102.407 146.287C98.615 145.216 100.022 140.929 103.366 139.639Z"/><path fill="#2A7158" transform="scale(0.0625 0.0625)" d="M397.002 88.005C409.656 88.0377 386.131 107.567 383.849 110.076C382.646 111.4 381.561 112.857 380.165 113.963C378.177 113.486 375.326 111.056 376.162 108.725C377.049 106.254 392.926 90.109 397.002 88.005Z"/><path fill="#2A7158" transform="scale(0.0625 0.0625)" d="M114.15 88.5059C117.129 88.5403 132.858 105.871 135.095 108.436C137.194 110.842 136.269 112.451 133.829 113.963C130.044 114.071 127.566 109.75 125.076 107.279L116.278 98.5978C113.001 95.314 108.38 92.2256 114.15 88.5059Z"/><path fill="#2A7158" transform="scale(0.0625 0.0625)" d="M367.048 117.278C369.571 116.945 372.289 117.574 371.602 120.922C371.286 122.457 357.142 137.388 353.666 139.639C349.245 141.084 347.538 136.684 350.278 133.772C353.9 129.922 362.819 120.147 367.048 117.278Z"/><path fill="#2A7158" transform="scale(0.0625 0.0625)" d="M67.5589 178.719C71.3812 178.715 89.7766 178.183 91.7805 179.098C95.5513 180.82 93.5064 184.461 90.5504 185.45C87.1367 185.581 68.4513 185.905 66.269 185.065C62.4118 183.58 63.3545 179.726 67.5589 178.719Z"/><path fill="#2A7158" transform="scale(0.0625 0.0625)" d="M144.557 119.262C149.089 119.131 157.488 130.014 160.72 133.576C162.948 136.031 161.649 138.122 159.286 139.639C155.81 139.227 135.243 121.332 144.557 119.262Z"/><path fill="#2A7158" transform="scale(0.0625 0.0625)" d="M437.764 179.251C443.64 179.233 450.606 178.962 456.48 179.439C460.11 179.733 460.712 183.916 456.939 185.825C451.448 186.013 443.048 186.136 437.542 185.41C434.453 185.002 433.073 180.658 437.764 179.251Z"/><path fill="#2A7158" transform="scale(0.0625 0.0625)" d="M355.062 224.26C355.734 224.337 376.109 236.363 367.048 240.344C365.535 240.206 344.296 228.016 355.062 224.26Z"/><path fill="#2A7158" transform="scale(0.0625 0.0625)" d="M106.021 178.719C110.233 178.418 123.304 177.125 123.159 182.262C123.109 184.02 122.104 184.707 120.68 185.45C116.981 185.473 113.285 185.499 109.583 185.5C104.486 185.5 100.655 181.657 106.021 178.719Z"/><path fill="#2A7158" transform="scale(0.0625 0.0625)" d="M135.933 178.719C138.496 178.456 142.381 178.769 144.597 178.472C150.219 177.718 154.57 182.337 148.591 185.45C144.839 185.478 140.985 185.643 137.265 185.21C133.565 184.778 132.539 180.427 135.933 178.719Z"/><path fill="#2A7158" transform="scale(0.0625 0.0625)" d="M363.452 179.251C366.454 179.205 376.205 178.202 377.885 180.978C379.192 183.136 377.634 184.859 375.525 185.825C372.219 186.182 367.451 185.911 364.093 185.73C360.627 185.544 360.316 180.742 363.452 179.251Z"/><path fill="#2A7158" transform="scale(0.0625 0.0625)" d="M426.213 139.639C429.402 139.521 438.869 138.344 438.313 143.336C438.089 145.349 437.31 145.848 435.561 146.483C431.978 146.645 422.369 147.962 423.61 142.256C423.899 140.927 425.153 140.23 426.213 139.639Z"/><path fill="#2A7158" transform="scale(0.0625 0.0625)" d="M78.6134 139.639C80.9726 139.697 89.3719 138.534 90.1353 141.895C90.769 144.685 89.8446 145.593 87.3673 146.483C79.4329 147.278 69.5405 143.561 78.6134 139.639Z"/></svg>